<svg width="16" height="12" viewBox="0 0 16 12" fill="none" xmlns="http://www.w3.org/2000/svg">
<path fill-rule="evenodd" clip-rule="evenodd" d="M7.99805 3.75991C6.96474 3.75991 6.12708 4.59939 6.12708 5.63494C6.12708 6.67049 6.96474 7.50997 7.99805 7.50997C9.03135 7.50997 9.86901 6.67049 9.86901 5.63494C9.86901 4.59939 9.03135 3.75991 7.99805 3.75991ZM4.87977 5.63494C4.87977 3.90902 6.27587 2.50988 7.99805 2.50988C9.72022 2.50988 11.1163 3.90902 11.1163 5.63494C11.1163 7.36086 9.72022 8.75999 7.99805 8.75999C6.27587 8.75999 4.87977 7.36086 4.87977 5.63494Z" fill="#222222"/>
<path fill-rule="evenodd" clip-rule="evenodd" d="M0.0250769 5.63273L0 5.6497C2.49401 9.35108 5.25805 11.2966 8.13157 11.2482C10.9976 11.1999 13.6716 9.17152 15.9988 5.66133L15.9963 5.65972L16 5.65731C13.6225 2.0436 10.9696 0.0155233 8.12039 8.86822e-05C5.27451 -0.0153281 2.5454 1.9798 0.0200683 5.62925L0.0250769 5.63273ZM1.57182 5.66165C3.80426 8.70352 6.03972 10.002 8.11009 9.96713C10.1853 9.93218 12.3554 8.55469 14.4482 5.6549C12.3076 2.65364 10.1577 1.29242 8.11347 1.28134C6.06212 1.27023 3.84514 2.61641 1.57182 5.66165Z" fill="#222222"/>
</svg>
