<svg width="16" height="16" viewBox="0 0 16 16" fill="none" xmlns="http://www.w3.org/2000/svg">
<path fill-rule="evenodd" clip-rule="evenodd" d="M7.99805 6.12483C6.96474 6.12483 6.12708 6.96431 6.12708 7.99987C6.12708 9.03542 6.96474 9.8749 7.99805 9.8749C9.03135 9.8749 9.86901 9.03542 9.86901 7.99987C9.86901 6.96431 9.03135 6.12483 7.99805 6.12483ZM4.87977 7.99987C4.87977 6.27395 6.27587 4.87481 7.99805 4.87481C9.72022 4.87481 11.1163 6.27395 11.1163 7.99987C11.1163 9.72578 9.72022 11.1249 7.99805 11.1249C6.27587 11.1249 4.87977 9.72578 4.87977 7.99987Z" fill="#222222"/>
<path fill-rule="evenodd" clip-rule="evenodd" d="M0.0250769 7.99766L0 8.01463C2.49401 11.716 5.25805 13.6616 8.13157 13.6132C10.9976 13.5649 13.6716 11.5364 15.9988 8.02626L15.9963 8.02465L16 8.02223C13.6225 4.40853 10.9696 2.38045 8.12039 2.36502C5.27451 2.3496 2.5454 4.34472 0.0200683 7.99418L0.0250769 7.99766ZM1.57182 8.02658C3.80426 11.0684 6.03972 12.3669 8.11009 12.3321C10.1853 12.2971 12.3554 10.9196 14.4482 8.01982C12.3076 5.01857 10.1577 3.65734 8.11347 3.64627C6.06212 3.63516 3.84514 4.98134 1.57182 8.02658Z" fill="#222222"/>
<path fill-rule="evenodd" clip-rule="evenodd" d="M15.9808 0.905996L0.919557 16L0.0155259 15.094L15.0768 0L15.9808 0.905996Z" fill="#222222"/>
</svg>
